<?xml version="1.0" encoding="utf-8"?>
<!-- Generator: Adobe Illustrator 21.1.0, SVG Export Plug-In . SVG Version: 6.00 Build 0)  -->
<svg version="1.1" id="Layer_1" xmlns="http://www.w3.org/2000/svg" xmlns:xlink="http://www.w3.org/1999/xlink" x="0px" y="0px"
	 viewBox="0 0 91.3 22.2" style="enable-background:new 0 0 91.3 22.2;" xml:space="preserve">
<g>
	<path style="fill:#D82C2C;" d="M1,1.2v20h18v-20C19,1.2,1,1.2,1,1.2z M12,19.2H8v-4h4V19.2z M17,19.2h-3v-6H6v6H3v-16h14V19.2z"/>
	<path style="fill:#D82C2C;" d="M5,9.2h2v2H5V9.2z M9,9.2h2v2H9V9.2z M13,9.2h2v2h-2V9.2z M5,5.2h2v2H5V5.2z M9,5.2h2v2H9V5.2z
		 M13,5.2h2v2h-2V5.2z"/>
</g>
<rect x="21.7" y="2.4" style="fill:none;" width="72.8" height="15.8"/>
<text transform="matrix(1 0 0 1 21.6667 13.5297)" style="fill:#D82C2C; font-family:'LeagueSpartan-Bold'; font-size:13px;">Ruby Life.</text>
<line style="fill:none;stroke:#D82C2C;stroke-width:2;stroke-miterlimit:10;" x1="21.7" y1="18.9" x2="89.4" y2="18.9"/>
</svg>
