<svg xmlns="http://www.w3.org/2000/svg" viewBox="0 0 88.49 20">
  <path fill="#050505" d="M0 0v20h18V0zm11 18H7v-4h4zm5 0h-3v-6H5v6H2V2h14z"/>
  <path fill="#050505" d="M4 8h2v2H4zm4 0h2v2H8zm4 0h2v2h-2zM4 4h2v2H4zm4 0h2v2H8zm4 0h2v2h-2zm9.45-2.4h3.83a3.77 3.77 0 0 1 2.52.83 2.92 2.92 0 0 1 1 2.36 3.24 3.24 0 0 1-.59 2 3.12 3.12 0 0 1-1.63 1.11l3.69 4.43h-3.1l-3.28-4.24v4.24h-2.44zm2.44 4.76h.86a2.77 2.77 0 0 0 .53-.09 1.3 1.3 0 0 0 .48-.22 1.14 1.14 0 0 0 .31-.42 1.54 1.54 0 0 0 .13-.66 1.55 1.55 0 0 0-.13-.66 1.15 1.15 0 0 0-.31-.42 1.3 1.3 0 0 0-.48-.22 2.74 2.74 0 0 0-.53-.09h-.86zm8.96-.7V8.8a2.49 2.49 0 0 0 .3 1.4 1.44 1.44 0 0 0 2 0 2.49 2.49 0 0 0 .3-1.4V5.66h2.3v3.73a3 3 0 0 1-.86 2.4 4.21 4.21 0 0 1-2.75.73 4.21 4.21 0 0 1-2.73-.72 3 3 0 0 1-.86-2.4V5.66zm13.48.83A3.59 3.59 0 0 1 47.27 9a3.57 3.57 0 0 1-.94 2.5 3.09 3.09 0 0 1-2.38 1 2.81 2.81 0 0 1-2.18-.95v.75h-2.31V1.15h2.3V6.3a3 3 0 0 1 2.18-.83 3.08 3.08 0 0 1 2.39 1.02zm-1.94 3.63A1.53 1.53 0 0 0 44.82 9a1.55 1.55 0 1 0-3.11 0 1.52 1.52 0 0 0 .44 1.12 1.49 1.49 0 0 0 1.11.44 1.52 1.52 0 0 0 1.13-.43zm9.04-4.46h2.65l-5.24 10h-2.65l2.3-4.42-3.15-5.58H50l1.86 3.42zm9.82-4.06v8.58h3.69v2.14H60.8V1.6zm5.13.34a1.37 1.37 0 0 1 2.33 1 1.37 1.37 0 1 1-2.33-1zm-.22 3.72v6.67h2.3V5.66zm4.53 0V4.24a3.88 3.88 0 0 1 .7-2.39 2.27 2.27 0 0 1 1.91-.9 3.29 3.29 0 0 1 1 .15 2.38 2.38 0 0 1 .68.31l.22.14-.8 1.63a1.34 1.34 0 0 0-.69-.18.57.57 0 0 0-.57.29 2.54 2.54 0 0 0-.14 1v1.37h1.53v1.76H75v4.91h-2.3V7.42h-1V5.66zm11.65 3.65H79.5a1.21 1.21 0 0 0 .46 1 1.62 1.62 0 0 0 1 .34 2.15 2.15 0 0 0 .88-.15 2.59 2.59 0 0 0 .74-.59l1.66.83a3.71 3.71 0 0 1-3.46 1.74 3.61 3.61 0 0 1-2.59-1 3.42 3.42 0 0 1 0-5 3.6 3.6 0 0 1 2.59-1 3.66 3.66 0 0 1 2.58.92 3.38 3.38 0 0 1 1 2.62 2.53 2.53 0 0 1-.02.29zm-4.78-1.27h2.54a1.24 1.24 0 0 0-.41-.8 1.28 1.28 0 0 0-.85-.28 1.32 1.32 0 0 0-.91.3 1.07 1.07 0 0 0-.37.78zM87 9.55a1.49 1.49 0 0 1 1.5 1.49 1.43 1.43 0 0 1-.44 1 1.44 1.44 0 0 1-1.06.44 1.49 1.49 0 0 1-1-2.54 1.43 1.43 0 0 1 1-.39z"/>
  <path fill="none" stroke="#050505" stroke-miterlimit="10" stroke-width="2" d="M20.67 17.65h67.68"/>
</svg>
