<svg xmlns="http://www.w3.org/2000/svg" viewBox="0 0 721 89.2">
  <path d="M52.5 71.8h31.6V35.5H52.5zm4.1-32.2H80v28.1H56.6z"/>
  <path d="M9.7 7.9v71.2h82.1V7.9zM87.6 12v7.4L83.1 24l-6.5-6.5-6.4 6.5-6.5-6.5-6.5 6.5-6.5-6.5-6.5 6.5-6.5-6.5-6.5 6.5-6.5-6.5-6.4 6.5-4.5-4.5V12zM21.2 75V39.7h23.9V75zm28 0V35.6H17.1V75h-3.4V25.3l4.5 4.5 6.5-6.5 6.5 6.5 6.5-6.5 6.5 6.5 6.5-6.5 6.5 6.5 6.5-6.5 6.5 6.5 6.5-6.5 6.5 6.5 4.5-4.5V75z"/>
  <path d="M146.1 11.1V24h-.8c-.4-9-11.4-12.2-13.9-12.2h-.9v35c0 4.1 1.5 6.3 4 6.3v.9h-18.7v-.8c2.5 0 4-2.2 4-6.3v-35h-.9c-2.6 0-13.5 3.2-13.9 12.2h-.8v-13zM181.4 54h-13.9v-.7c2.3-.7 2.4-3.4 2.4-6.5V34.9c0-3.5-1.4-5.1-4.6-5.1a5.5 5.5 0 0 0-4.5 3.2v13.8c0 3.4.3 5.9 2.5 6.4v.8h-13.9v-.8c2.3-.7 2.4-3.3 2.4-6.4V15.6c0-2.1-.7-2.9-3.2-3.8V11l12.1-2.6v23.3c1.3-3.3 5.6-6.4 9.2-6.4s8.8 2.1 8.8 9.4v12.1c0 3.4.4 5.9 2.5 6.5zM193.2 39.4c.2 7.6 3.2 10.4 7.3 11.3s7.7-.8 9-4.8l.8.3c-.9 3.8-4.9 8.4-12.8 8.4s-14-6.8-14-14.5c0-9.5 6.9-14.8 14.8-14.8s12.8 3.6 12.8 14.1zm9.9-.8c0-7.7-1.6-12.5-4.7-12.5s-5.2 6.6-5.2 12.5zM276 54h-8.8c-7.6 0-7.6-1.4-10.4-13.7-1.4-6.2-7.9-6-7.9-6H246v12.6c0 5.1 1.1 6.3 3.7 6.3v.8h-18v-.8c2.6 0 3.8-1.2 3.8-6.3V17.3c0-3.8-1.1-5.4-3.8-5.4v-.8h16.2c12.1 0 21.9 1.5 21.9 11.7 0 8.3-6.5 10.6-13.1 11 5.5-.2 9.8 1.9 12.7 12.9 1.2 4.6 5 6.5 6.6 6.6zm-28.1-42.2H246v21.7h1.9c7 0 9.8.1 9.8-10.8s-3.2-10.9-9.8-10.9zM309.1 52.9l-10.4 1.6c-1.6.2-1.7-1.2-1.7-1.2v-5.2c-1 3.4-5 6.4-9.5 6.4s-8.8-2-8.8-9.3V31.9c0-3.7.1-4.2-3.4-4.7v-.7l12.4-1.2V45c0 3.4 1.2 5.1 4.6 5.1a5.2 5.2 0 0 0 4.6-3.7V32.1c0-3.7.2-4.5-2.9-4.9v-.7l11.8-1.2v23.2c0 2.9.5 3.4 3.1 3.7zM329.4 54.5c-4.2 0-7.3-1.1-9.1-2.9-2.1 1.6-7.3 3-7.3 2v-38c0-2.1-.6-3-3.1-3.9V11L322 8.5v21.7c1.8-3.4 5.6-4.9 9.9-4.9 7.6 0 12.9 6 12.9 14.6 0 10.9-7.3 14.6-15.4 14.6zm-1.7-27.1c-4.1 0-5.7 4.2-5.7 8.7v7.1c0 7.3 2.6 10.4 6.2 10.4s6.2-3.7 6.2-13.2-2.1-12.9-6.7-12.9zM378.3 25.8v.7c-2.9 0-4.9 1.2-8.5 9.8l-8.5 23.2c-1.7 5.1-3.5 7.1-4.8 8.2a5.7 5.7 0 0 1-5.2.6 4.7 4.7 0 0 1 3.8-8.7 4.3 4.3 0 0 1 2.4 2.7c.2.9 1.8 1.2 3.1-3.1l1.2-3.2c-1.9-4.3-12.7-26.5-12.7-26.5a4.8 4.8 0 0 0-4.4-3.1v-.7h16.8v.7c-3.7 0-1.5 4.5-1.5 4.5l6.3 12.9 2.9-7.8s3.5-9.6-3.8-9.6v-.7zM414.8 54h-16.7v-.5c2.6 0 3.5-3.7 3.5-7.8V19.5c0-3.8-.9-7.9-3.5-7.9v-.5h16.7c8.5 0 17.6-.1 17.6 10.6 0 9.1-10.9 10.3-12.1 10.3 4 0 15 .7 15 11.1S425.3 54 414.8 54zm-2.4-42.2v20h2.1c3.3 0 7.4-1.2 7.4-10.4s-5.1-9.6-7.9-9.6zm1.8 20.8h-1.8v20.6h1.6c5.3 0 10.1.2 10.1-10.4s-5.8-10.2-9.9-10.2zM454.5 54.5c-10.1 0-15.1-6.6-15.1-14.6s5.1-14.6 15.1-14.6 15.1 6.6 15.1 14.6-5 14.6-15.1 14.6zm0-28.5c-3.8 0-4.5 2.8-4.5 13.8s.6 13.8 4.5 13.8 4.5-2.8 4.5-13.8-.7-13.7-4.5-13.7zM488.4 54.5c-10.1 0-15.1-6.6-15.1-14.6s5.1-14.6 15.1-14.6 15.1 6.6 15.1 14.6-5 14.6-15.1 14.6zm0-28.5c-3.8 0-4.5 2.8-4.5 13.8s.6 13.8 4.5 13.8 4.5-2.8 4.5-13.8-.7-13.7-4.5-13.7zM519.8 54h-13.9v-.7c2.3-.7 2.4-3.2 2.4-6.4V15.6c0-2.1-.7-3.1-3.2-4v-.7l12.1-2.4v38.4c0 3.4.3 5.8 2.5 6.4zm20.9 0h-9.9c-4.2 0-4.7-1.1-8.8-7.2l-3.5-5.2 6.5-6.8c1.3-1.4 6-8.4.2-8.2v-.8h15.7v.8c-2.3.1-9.4 2-16.2 9.9 4.5 6.3 9.7 12.9 9.7 12.9 2 2.8 4.5 3.8 6.4 3.8zM554.9 54.5c-7.4 0-11-2.4-11-2.4v-7.8h.8c1.1 4 4.6 9.5 10.2 9.5s5.2-5.2.5-8.3l-6.2-3.7c-5.9-3.7-7.4-9.2-3.8-13.5 0 0 2.3-3 8.8-3s10 1.8 10 1.8v6.5h-.8a9.6 9.6 0 0 0-9.2-7.5c-4 0-5.7 4.3-.4 7.7l6.2 3.8c5.5 3.4 7.1 9.5 3.9 13.7-.1 0-2.4 3.2-9 3.2zM589.4 48.6c-1 3.1-4.6 6-8.9 6s-9-2-9-9.3V26.6h-3.4v-.8h3.5v-8.2l9-1.3v9.5h7.4v.8h-7.4V45c0 3.4 1.3 5.1 4.6 5.1a4.6 4.6 0 0 0 3.7-2zM606.6 54.5c-10.1 0-15.1-6.6-15.1-14.6s5.1-14.6 15.1-14.6 15.1 6.6 15.1 14.6-5 14.6-15.1 14.6zm0-28.5c-3.8 0-4.5 2.8-4.5 13.8s.6 13.8 4.5 13.8 4.5-2.8 4.5-13.8-.7-13.7-4.5-13.7zM642.1 34.3a4.4 4.4 0 0 1-1.7-3.4c0-.7-2.2-.2-4.6 3.5v12.5c0 3.4.3 5.8 2.5 6.4v.7h-14v-.7c2.4-.7 2.4-3.3 2.4-6.4V32.6c0-2.1-.7-3-3.2-4.1v-.8l12.2-2.5V33c3.8-5.8 5.9-6.6 7.6-7.4a5.4 5.4 0 0 1 5.4.9 5.1 5.1 0 0 1-6.7 7.7zM662.1 39.4c.2 7.6 3.2 10.4 7.3 11.3s7.7-.8 9-4.8l.8.3c-.9 3.8-4.9 8.4-12.8 8.4s-14-6.8-14-14.5c0-9.5 6.9-14.8 14.8-14.8S680 28.9 680 39.4zm9.9-.8c0-7.7-1.6-12.5-4.7-12.5s-5.2 6.6-5.2 12.5zM684.2 48.6a5.7 5.7 0 1 1 11.4 0 5.7 5.7 0 0 1-11.4 0z" fill="#ff4136"/>
  <path fill="none" stroke="#ff4136" stroke-miterlimit="10" stroke-width="6" d="M106.8 77h590.9"/>
</svg>
