<?xml version="1.0" encoding="utf-8"?>
<!-- Generator: Adobe Illustrator 21.0.0, SVG Export Plug-In . SVG Version: 6.00 Build 0)  -->
<svg version="1.1" id="Layer_1" xmlns="http://www.w3.org/2000/svg" xmlns:xlink="http://www.w3.org/1999/xlink" x="0px" y="0px"
	 viewBox="0 0 100 89.2" style="enable-background:new 0 0 100 89.2;" xml:space="preserve">
<style type="text/css">
	.st0{enable-background:new    ;}
</style>
<path d="M52.5,71.8h31.6V35.5H52.5V71.8z M56.6,39.6H80v28.1H56.6V39.6z"/>
<path d="M9.7,7.9v71.2h7.5h32.1h42.5V7.9H9.7z M87.6,12v7.4L83.1,24l-6.5-6.5L70.2,24l-6.5-6.5L57.2,24l-6.5-6.5L44.2,24l-6.5-6.5
	L31.2,24l-6.5-6.5L18.3,24l-4.5-4.5V12C13.8,12,87.6,12,87.6,12z M21.2,75V39.7h23.9V75H21.2z M49.2,75V35.6H17.1V75h-3.4V25.3
	l4.5,4.5l6.5-6.5l6.5,6.5l6.5-6.5l6.5,6.5l6.5-6.5l6.5,6.5l6.5-6.5l6.5,6.5l6.5-6.5l6.5,6.5l4.5-4.5V75C87.6,75,49.2,75,49.2,75z"/>
<text transform="matrix(1 0 0 1 0 108)" style="font-family:'HelveticaNeue-Bold'; font-size:5px;">Created by Stephen Plaster</text>
<text transform="matrix(1 0 0 1 0 113)" style="font-family:'HelveticaNeue-Bold'; font-size:5px;">from the Noun Project</text>
</svg>
