<svg xmlns="http://www.w3.org/2000/svg" viewBox="0 0 75 75"><title>admin-black</title><path d="M61.5,13.9a32.8,32.8,0,0,1-22.6-9,2,2,0,0,0-2.7,0,32.8,32.8,0,0,1-22.6,9,2,2,0,0,0-2,2V47.1a2.4,2.4,0,0,0,.2.8A33.5,33.5,0,0,0,33.6,66.8l4,1.1,4-1.1A33.5,33.5,0,0,0,63.4,47.9a2.4,2.4,0,0,0,.2-.8V15.9A2.2,2.2,0,0,0,61.5,13.9Zm-2,32.8A29.5,29.5,0,0,1,40.5,63l-3,.8-3-.8a29.5,29.5,0,0,1-19-16.3V17.8A36.6,36.6,0,0,0,37.5,9a36.6,36.6,0,0,0,22,8.8ZM36.3,33.2,25.7,43.9l5.4,5.4,2.8-2.8-2.6-2.6,1.2-1.2,2.6,2.6,2.8-2.8-2.6-2.6,3.8-3.8a7.3,7.3,0,0,0,3.3.8,7,7,0,1,0-7-7A9,9,0,0,0,36.3,33.2Zm6.2-6.3a3,3,0,1,1-3,3A2.9,2.9,0,0,1,42.5,26.9Z"/></svg>