<svg xmlns="http://www.w3.org/2000/svg" viewBox="0 0 110 110"><title>store-curly-black</title><path d="M8.3,96.9a5,5,0,0,1,4.9-5.2h4.2V66.4l2.6.4h1.2a18.2,18.2,0,0,0,6.5-1.2V91.8H82.1V65.6a18.2,18.2,0,0,0,6.5,1.2h1.2l2.6-.4V91.7h4.2a5.2,5.2,0,0,1,0,10.3H13.3A5,5,0,0,1,8.3,96.9ZM20.4,61.2h.9A12.6,12.6,0,0,0,32.6,54a12.4,12.4,0,0,0,22.4.2,12.4,12.4,0,0,0,16.6,5.7A11.9,11.9,0,0,0,77.4,54a12.3,12.3,0,0,0,11.3,7.2h.8c8.1-.5,13-9.3,9.7-16.8L87.5,18.3a6.4,6.4,0,0,0-5.9-3.8H51.1V9.4a4.5,4.5,0,0,0-4.5-4.5H39.1a4.5,4.5,0,0,0-4.5,4.5v5.1H28.3a6.6,6.6,0,0,0-5.9,3.8L10.8,44.4C7.4,51.8,12.3,60.6,20.4,61.2Z"/></svg>